<?xml version="1.0"?>
<svg xmlns="http://www.w3.org/2000/svg" viewBox="0 0 1260 1260">
    <g>
	<path fill="#CD2C24" d="M0,90C0,30,30,0,90,0h90v270c0,49.7-40.3,90-90,90S0,319.7,0,270V90z M360,0h180v270c0,49.7-40.3,90-90,90
		s-90-40.3-90-90V0z M720,0h180v270c0,49.7-40.3,90-90,90s-90-40.3-90-90V0z M1080,0h90c60,0,90,30,90,90v180c0,49.7-40.3,90-90,90
		s-90-40.3-90-90V0z"/>
</g>
    <g>
	<path fill="#F5E5C0" d="M180,0h180v270c0,49.7-40.3,90-90,90s-90-40.3-90-90V0z M540,0h180v270c0,49.7-40.3,90-90,90s-90-40.3-90-90V0
		z M900,0h180v270c0,49.7-40.3,90-90,90c-49.7,0-90-40.3-90-90V0z"/>
</g>
    <path fill="#323A46" d="M1170,360.5c-49.7,0-90-40.3-90-90c0,49.7-40.3,90-90,90c-49.7,0-90-40.3-90-90c0,49.7-40.3,90-90,90
	s-90-40.3-90-90c0,49.7-40.3,90-90,90s-90-40.3-90-90c0,49.7-40.3,90-90,90s-90-40.3-90-90c0,49.7-40.3,90-90,90s-90-40.3-90-90
	c0,49.7-40.3,90-90,90s-90-40.3-90-90v990l360-270h810c60,0,90-30,90-90v-630C1260,320.2,1219.7,360.5,1170,360.5z M260.5,821
	c-39.3,0-75.3-14.4-103-38.3V924c0,15.2-12.3,27.5-27.5,27.5s-27.5-12.3-27.5-27.5V532.5c0-15.2,12.3-27.5,27.5-27.5
	s27.5,12.3,27.5,27.5v10.8c27.7-23.8,63.7-38.3,103-38.3c87.1,0,158,70.9,158,158C418.5,750.1,347.6,821,260.5,821z M630,821
	c-87.4,0-158.5-71.1-158.5-158.5c0-87.4,71.1-158.5,158.5-158.5c87.4,0,158.5,71.1,158.5,158.5C788.5,749.9,717.4,821,630,821z
	 M914.9,621.1c22.2,11.1,58.8,13.4,85.6,13.4c48.3,0,84.3,6.3,110.2,19.2c30.8,15.4,47.8,41.5,47.8,73.5s-17,58.1-47.8,73.5
	c-25.9,12.9-61.9,19.2-110.2,19.2c-53.2,0-101.8-13-144.6-38.7c-13-7.8-17.2-24.7-9.4-37.7c7.8-13,24.7-17.2,37.7-9.4
	c34.2,20.5,73.3,30.9,116.4,30.9c26.8,0,63.4-2.3,85.6-13.4c15.3-7.7,17.4-16.2,17.4-24.3s-2.1-16.7-17.4-24.3
	c-22.2-11.1-58.8-13.4-85.6-13.4c-48.3,0-84.3-6.3-110.2-19.2c-30.8-15.4-47.8-41.5-47.8-73.5s17-58.1,47.8-73.5
	c25.9-12.9,61.9-19.2,110.2-19.2c53.2,0,101.8,13,144.6,38.7c13,7.8,17.2,24.7,9.4,37.7s-24.7,17.2-37.7,9.4
	c-34.2-20.5-73.3-30.9-116.4-30.9c-26.8,0-63.4,2.3-85.6,13.4c-15.3,7.7-17.4,16.2-17.4,24.3S899.6,613.4,914.9,621.1z"/>
    <circle fill="#323A46" cx="260.5" cy="662.5" r="103"/>
    <circle fill="#323A46" cx="630" cy="662" r="103.5"/>
</svg>
