<svg version="1.0" xmlns="http://www.w3.org/2000/svg" viewBox="0 0 1260 1260">
	<path d="M0,360 c45,45 135,45 180,0c45,45 135,45 180,0c45,45 135,45 180,0c45,45 135,45 180,0c45,45 135,45 180,0c45,45 135,45 180,0c45,45 135,45 180,0l0,540 q0,90 -90,90 l-810,0 L0,1260z" />
	<rect width="1080" height="90" x="90" />
	<path d="M0,90 q0,-90 90,-90 l90,0 l0,270 a90,90 0 1,1 -180,0 Z" />
	<path d="M360,0 l180,0 l0,270 a90,90 0 1,1 -180,0 Z" />
	<path d="M720,0 l180,0 l0,270 a90,90 0 1,1 -180,0 Z" />
	<path d="M1080,0 l90,0 q90,0 90,90 l0,180 a90,90 0 1,1 -180,0 Z" />
	<path d="m130,923.5l0,-391.5m0,130.5a130.5,130.5 0 1 0 261,0a130.5,130.5 0 1 0 -261,0" fill="#FFF" fill-opacity="0" stroke="#FFF" stroke-linecap="round" stroke-width="70"/>
	<path d="m630,531m-131,131a131,131 0 1 0 262,0a131,131 0 1 0 -262,0" fill="#FFF" fill-opacity="0" stroke="#FFF" stroke-linecap="round" stroke-width="70"/>
	<path d="m1131,565.8c-21.75,-13.05 -65.25,-34.8 -130.5,-34.8q-130.5,0 -130.5,65.25t130.5,65.25t130.5,65.25t-130.5,65.25c-65.25,0 -108.75,-21.75 -130.5,-34.8" fill="#FFF" fill-opacity="0" stroke="#FFF" stroke-linecap="round" stroke-width="70"/>
</svg>
