<svg xmlns="http://www.w3.org/2000/svg" viewBox="0 0 1260 1260">
    <style>
        .slide-down {
            animation: slide-down 3s ease-out forwards;
        }

        @keyframes slide-down {
            from {
                transform: translateY(-220px);
            }
            to {
                transform: translateY(-20px);
            }
        }
        .draw-line {
            stroke-dasharray: 1000;
            stroke-dashoffset: 1000;
            animation: draw 3s linear forwards;
        }

        .draw-circle {
            stroke-dasharray: 824;
            stroke-dashoffset: 824;
            animation: draw 3s linear forwards;
        }

        @keyframes draw {
            to {
                stroke-dashoffset: 0;
            }
        }
    </style>
    <defs>
        <mask id="reveal">
            <rect x="0" y="0" width="1260" height="400" rx="80" ry="80" fill="white" />
        </mask>
    </defs>
    <path d="M0,90 Q0,0 90,0 L1170,0 Q1260,0 1260,90 L1260,900 Q1260,990 1170,990 L360,990 L0,1260 Z" fill="#323A46" />
    <g mask="url(#reveal)">
      <g fill="#CD2C24" class="slide-down">
          <path d="M0,90 Q0,0 90,0 L180,0 L180,290 A90,90 0 1 1 0,290 Z" />
          <path d="M360,0 H540 V290 A90,90 0 1 1 360,290 Z" />
          <path d="M720,0 H900 V290 A90,90 0 1 1 720,290 Z" />
          <path d="M1080,0 H1170 Q1260,0 1260,90 L1260,290 A90,90 0 1 1 1080,290 Z" />
      </g>
      <g fill="#F5E5C0" class="slide-down">
          <path d="M180,0 H360 V290 A90,90 0 1 1 180,290 Z" />
          <path d="M540,0 H720 V290 A90,90 0 1 1 540,290 Z" />
          <path d="M900,0 H1080 V290 A90,90 0 1 1 900,290 Z" />
      </g>
    </g>
    <line x1="130" y1="923.5" x2="130" y2="532" fill="none" stroke="#FFF" stroke-linecap="round" stroke-width="55" class="draw-line" />
    <circle cx="260.5" cy="662.5" r="130.5" fill="none" stroke="#FFF" stroke-linecap="round" stroke-width="55" class="draw-circle" />
    <circle cx="630" cy="662" r="131" fill="none" stroke="#FFF" stroke-linecap="round" stroke-width="55" class="draw-circle" />
    <path d="m1131,565.8c-21.75,-13.05 -65.25,-34.8 -130.5,-34.8q-130.5,0 -130.5,65.25t130.5,65.25t130.5,65.25t-130.5,65.25c-65.25,0 -108.75,-21.75 -130.5,-34.8" fill="#FFF" fill-opacity="0" stroke="#FFF" stroke-linecap="round" stroke-width="55" class="draw-line" />
</svg>
