<svg xmlns="http://www.w3.org/2000/svg" viewBox="0 0 1260 1260">
<path fill="#a7aaad" d="M1170,0h-90H900H720H540H360H180H90C30,0,0,30,0,90v180c0,49.7,40.3,90,90,90s90-40.3,90-90V90h180v180
	c0,49.7,40.3,90,90,90s90-40.3,90-90V90h180v180c0,49.7,40.3,90,90,90s90-40.3,90-90V90h180v180c0,49.7,40.3,90,90,90s90-40.3,90-90
	V90C1260,30,1230,0,1170,0z"/>
<path fill="#a7aaad" d="M1080,360c-45,45-135,45-180,0c-45,45-135,45-180,0c-45,45-135,45-180,0c-45,45-135,45-180,0c-45,45-135,45-180,0
	c-45,45-135,45-180,0v900l360-270h810c60,0,90-30,90-90V360C1215,405,1125,405,1080,360z M260.5,828c-35.5,0-68.5-11.3-95.5-30.4
	v125.9c0,19.3-15.7,35-35,35s-35-15.7-35-35V532c0-19.3,15.7-35,35-35c17.8,0,32.6,13.3,34.7,30.6c27.1-19.3,60.1-30.6,95.8-30.6
	c91.3,0,165.5,74.2,165.5,165.5S351.8,828,260.5,828z M630,828c-91.5,0-166-74.5-166-166c0-91.5,74.5-166,166-166
	c91.5,0,166,74.5,166,166C796,753.5,721.5,828,630,828z M918.3,613.9c11.5,5.8,35.1,12.6,82.2,12.6c49.5,0,86.6,6.5,113.5,20
	c33.5,16.8,52,45.3,52,80.2s-18.5,63.5-52,80.2c-26.9,13.5-64.1,20-113.5,20C946,827,896,813.6,852,787.2c-16.6-9.9-22-31.4-12-48
	c9.9-16.6,31.4-22,48-12c33,19.8,70.8,29.8,112.5,29.8c47.1,0,70.7-6.9,82.2-12.6c7.3-3.6,13.3-7.5,13.3-17.6s-6-14-13.3-17.6
	c-11.5-5.8-35.1-12.6-82.2-12.6c-49.5,0-86.6-6.5-113.5-20c-33.5-16.8-52-45.3-52-80.2c0-35,18.5-63.5,52-80.2
	c26.9-13.5,64.1-20,113.5-20c54.5,0,104.5,13.4,148.5,39.8c16.6,9.9,22,31.4,12,48c-9.9,16.6-31.4,21.9-48,12
	c-33-19.8-70.8-29.8-112.5-29.8c-47.1,0-70.7,6.9-82.2,12.6c-7.3,3.6-13.3,7.5-13.3,17.6S911,610.3,918.3,613.9z"/>
<circle fill="#a7aaad" cx="630" cy="662" r="96"/>
<circle fill="#a7aaad" cx="260.5" cy="662.5" r="95.5"/>
</svg>
