<svg xmlns="http://www.w3.org/2000/svg" viewBox="0 0 240 120" role="img" aria-labelledby="title desc">
  <title id="title">Coffee Monster logo</title>
  <desc id="desc">A friendly one-eyed monster holding a coffee cup.</desc>
  <rect width="240" height="120" rx="24" fill="#111827"/>
  <circle cx="78" cy="60" r="36" fill="#f97316"/>
  <circle cx="78" cy="54" r="15" fill="#fff"/>
  <circle cx="82" cy="56" r="7" fill="#111827"/>
  <path d="M54 77c10 11 38 11 48 0" fill="none" stroke="#111827" stroke-width="7" stroke-linecap="round"/>
  <path d="M44 24l10 18M78 18v20M112 24l-10 18" stroke="#f97316" stroke-width="8" stroke-linecap="round"/>
  <rect x="128" y="38" width="54" height="42" rx="8" fill="#fff7ed"/>
  <path d="M182 48h10c10 0 10 22 0 22h-10" fill="none" stroke="#fff7ed" stroke-width="8"/>
  <path d="M140 30c-7-9 8-13 0-22M158 30c-7-9 8-13 0-22M176 30c-7-9 8-13 0-22" fill="none" stroke="#fdba74" stroke-width="5" stroke-linecap="round"/>
  <text x="128" y="100" font-family="Arial, Helvetica, sans-serif" font-size="17" font-weight="700" fill="#fff7ed">COFFEE MONSTER</text>
</svg>
